<svg viewBox="0 0 100 100" xmlns="http://www.w3.org/2000/svg"><path d="M82,68Q71,86,53,81.5Q35,77,27.5,63.5Q20,50,23,29Q26,8,48.5,11Q71,14,82,32Q93,50,82,68Z" stroke="none" stroke-width="0" fill="#ffffff"/><path d="M78.5,67.5Q70,85,52,81Q34,77,26.5,63.5Q19,50,22.5,29.5Q26,9,49,10Q72,11,79.5,30.5Q87,50,78.5,67.5Z" stroke="none" stroke-width="0" fill="#ffffff"/><path d="M86,69.5Q73,89,54,83Q35,77,24,63.5Q13,50,20.5,30.5Q28,11,48.5,14Q69,17,84,33.5Q99,50,86,69.5Z" stroke="none" stroke-width="0" fill="#ffffff"/><path d="M81,68Q71,86,52.5,81.5Q34,77,20.5,63.5Q7,50,20,35.5Q33,21,53,15.5Q73,10,82,30Q91,50,81,68Z" stroke="none" stroke-width="0" fill="#ffffff"/><path d="M81.5,68.5Q71,87,51,85Q31,83,22.5,66.5Q14,50,19.5,28.5Q25,7,49,8.5Q73,10,82.5,30Q92,50,81.5,68.5Z" stroke="none" stroke-width="0" fill="#ffffff"/><path d="M81.5,69.5Q72,89,51.5,86Q31,83,24.5,66.5Q18,50,23,31Q28,12,50.5,11Q73,10,82,30Q91,50,81.5,69.5Z" stroke="none" stroke-width="0" fill="#ffffff"/><path d="M80,68Q71,86,49,88Q27,90,19.5,70Q12,50,19,29Q26,8,46,15Q66,22,77.5,36Q89,50,80,68Z" stroke="none" stroke-width="0" fill="#ffffff"/><path d="M81,65.5Q68,81,50.5,80.5Q33,80,21.5,65Q10,50,22.5,36.5Q35,23,50,23.5Q65,24,79.5,37Q94,50,81,65.5Z" stroke="none" stroke-width="0" fill="#ffffff"/></svg>