<svg id="visual" viewBox="0 0 900 600" width="900" height="600" xmlns="http://www.w3.org/2000/svg" xmlns:xlink="http://www.w3.org/1999/xlink" version="1.1"><g transform="translate(416.38612554143083 282.6894144857847)"><path d="M114.6 -187.9C165.8 -168.9 236.6 -173.2 283.3 -145.8C330 -118.3 352.5 -59.2 342.2 -5.9C332 47.3 289 94.7 247.1 130.3C205.1 166 164.3 189.9 123.3 220.1C82.3 250.3 41.2 286.6 -1.3 288.9C-43.8 291.3 -87.7 259.5 -137.6 234.5C-187.5 209.5 -243.6 191.3 -265.7 153.3C-287.8 115.3 -275.9 57.7 -253 13.2C-230.1 -31.3 -196.3 -62.5 -170.7 -94.4C-145.1 -126.3 -127.8 -158.8 -100.7 -191.9C-73.7 -224.9 -36.8 -258.5 -2.6 -254C31.7 -249.5 63.3 -207 114.6 -187.9" fill="#BB004B"></path></g></svg>