<svg id="visual" viewBox="0 0 2000 200" width="2000" height="200" xmlns="http://www.w3.org/2000/svg" xmlns:xlink="http://www.w3.org/1999/xlink" version="1.1"><path d="M0 87L66.7 75.3C133.3 63.7 266.7 40.3 400 36.2C533.3 32 666.7 47 800 72.8C933.3 98.7 1066.7 135.3 1200 142.3C1333.3 149.3 1466.7 126.7 1600 119.7C1733.3 112.7 1866.7 121.3 1933.3 125.7L2000 130L2000 201L1933.3 201C1866.7 201 1733.3 201 1600 201C1466.7 201 1333.3 201 1200 201C1066.7 201 933.3 201 800 201C666.7 201 533.3 201 400 201C266.7 201 133.3 201 66.7 201L0 201Z" fill="#f9f9f9" stroke-linecap="round" stroke-linejoin="miter"></path></svg>